<svg width="185" height="51" viewBox="0 0 185 51" fill="none" xmlns="http://www.w3.org/2000/svg">
<circle cx="160.5" cy="26.5" r="24.5" fill="white"/>
<path d="M22.68 33.16V38H2.96V9.6H22.32V14.44H8.48V21.28H20.44V25.76H8.48V33.16H22.68ZM35.3053 38.4C33.5186 38.4 31.812 38.1067 30.1853 37.52C28.5586 36.9333 27.1586 36.0667 25.9853 34.92L27.9053 31.44C29.1586 32.4533 30.3853 33.2 31.5853 33.68C32.812 34.16 33.9853 34.4 35.1053 34.4C36.1453 34.4 36.972 34.2133 37.5853 33.84C38.2253 33.4667 38.5453 32.9067 38.5453 32.16C38.5453 31.6533 38.372 31.2667 38.0253 31C37.6786 30.7067 37.172 30.4533 36.5053 30.24C35.8653 30.0267 35.0786 29.7867 34.1453 29.52C32.5986 29.0133 31.3053 28.52 30.2653 28.04C29.2253 27.56 28.4386 26.96 27.9053 26.24C27.3986 25.4933 27.1453 24.5467 27.1453 23.4C27.1453 22.0133 27.492 20.8267 28.1853 19.84C28.9053 18.8267 29.892 18.04 31.1453 17.48C32.4253 16.92 33.9186 16.64 35.6253 16.64C37.1186 16.64 38.532 16.88 39.8653 17.36C41.1986 17.8133 42.412 18.56 43.5053 19.6L41.3453 23C40.2786 22.1733 39.2653 21.5733 38.3053 21.2C37.3453 20.8 36.372 20.6 35.3853 20.6C34.8253 20.6 34.292 20.6667 33.7853 20.8C33.3053 20.9333 32.9053 21.16 32.5853 21.48C32.292 21.7733 32.1453 22.2 32.1453 22.76C32.1453 23.2667 32.2786 23.6667 32.5453 23.96C32.8386 24.2267 33.2653 24.4667 33.8253 24.68C34.412 24.8933 35.1186 25.1333 35.9453 25.4C37.6253 25.88 39.0386 26.3733 40.1853 26.88C41.3586 27.3867 42.2386 28.0133 42.8253 28.76C43.412 29.48 43.7053 30.48 43.7053 31.76C43.7053 33.84 42.9453 35.4667 41.4253 36.64C39.9053 37.8133 37.8653 38.4 35.3053 38.4ZM53.6831 38L45.9631 17.04H51.5231L56.8031 33.12L62.1231 17.04H67.2031L59.5231 38H53.6831ZM80.2522 38.4C78.5722 38.4 77.0522 38.12 75.6922 37.56C74.3322 36.9733 73.1722 36.1867 72.2122 35.2C71.2522 34.1867 70.5055 33.04 69.9722 31.76C69.4655 30.4533 69.2122 29.08 69.2122 27.64C69.2122 25.64 69.6522 23.8133 70.5322 22.16C71.4389 20.5067 72.7189 19.1867 74.3722 18.2C76.0522 17.1867 78.0255 16.68 80.2922 16.68C82.5855 16.68 84.5455 17.1867 86.1722 18.2C87.7989 19.1867 89.0389 20.5067 89.8922 22.16C90.7722 23.7867 91.2122 25.5467 91.2122 27.44C91.2122 27.76 91.1989 28.0933 91.1722 28.44C91.1455 28.76 91.1189 29.0267 91.0922 29.24H74.8922C74.9989 30.3067 75.3055 31.24 75.8122 32.04C76.3455 32.84 77.0122 33.4533 77.8122 33.88C78.6389 34.28 79.5189 34.48 80.4522 34.48C81.5189 34.48 82.5189 34.2267 83.4522 33.72C84.4122 33.1867 85.0655 32.4933 85.4122 31.64L90.0122 32.92C89.5055 33.9867 88.7722 34.9333 87.8122 35.76C86.8789 36.5867 85.7722 37.24 84.4922 37.72C83.2122 38.1733 81.7989 38.4 80.2522 38.4ZM74.7722 25.84H85.7322C85.6255 24.7733 85.3189 23.8533 84.8122 23.08C84.3322 22.28 83.6922 21.6667 82.8922 21.24C82.0922 20.7867 81.1989 20.56 80.2122 20.56C79.2522 20.56 78.3722 20.7867 77.5722 21.24C76.7989 21.6667 76.1589 22.28 75.6522 23.08C75.1722 23.8533 74.8789 24.7733 74.7722 25.84ZM95.6375 8.8H100.998V31.28C100.998 32.24 101.158 32.8933 101.478 33.24C101.798 33.56 102.238 33.72 102.798 33.72C103.224 33.72 103.664 33.6667 104.118 33.56C104.571 33.4533 104.971 33.32 105.318 33.16L106.038 37.24C105.318 37.5867 104.478 37.8533 103.518 38.04C102.558 38.2267 101.691 38.32 100.918 38.32C99.2375 38.32 97.9308 37.88 96.9975 37C96.0908 36.0933 95.6375 34.8133 95.6375 33.16V8.8Z" fill="white"/>
<path d="M122.933 36.88C122.346 37.12 121.693 37.36 120.973 37.6C120.279 37.84 119.546 38.0267 118.773 38.16C117.999 38.32 117.239 38.4 116.493 38.4C115.426 38.4 114.439 38.2267 113.533 37.88C112.653 37.5067 111.946 36.9067 111.413 36.08C110.906 35.2533 110.653 34.16 110.653 32.8V21.84H107.973V17H110.653V10.32H117.053V17H121.333V21.84H117.053V30.6C117.053 31.2933 117.226 31.8 117.573 32.12C117.919 32.4133 118.359 32.56 118.893 32.56C119.346 32.56 119.826 32.48 120.333 32.32C120.866 32.16 121.319 31.9867 121.693 31.8L122.933 36.88ZM126.627 38V17H133.027V38H126.627ZM126.627 14.6V8.8H133.027V14.6H126.627ZM148.648 38.4C146.861 38.4 145.274 38.1067 143.888 37.52C142.501 36.9333 141.314 36.1333 140.328 35.12C139.368 34.1067 138.634 32.9467 138.128 31.64C137.621 30.3333 137.368 28.9467 137.368 27.48C137.368 25.56 137.808 23.7733 138.688 22.12C139.594 20.4667 140.888 19.1333 142.568 18.12C144.248 17.1067 146.274 16.6 148.648 16.6C151.048 16.6 153.074 17.12 154.728 18.16C156.408 19.1733 157.661 20.5067 158.488 22.16L152.248 24.04C151.848 23.4 151.328 22.9067 150.688 22.56C150.074 22.2133 149.381 22.04 148.608 22.04C147.728 22.04 146.928 22.2667 146.208 22.72C145.514 23.1733 144.954 23.8 144.528 24.6C144.128 25.4 143.928 26.36 143.928 27.48C143.928 28.5733 144.141 29.5333 144.568 30.36C144.994 31.1867 145.554 31.84 146.248 32.32C146.941 32.7733 147.728 33 148.608 33C149.141 33 149.634 32.92 150.088 32.76C150.568 32.5733 150.994 32.32 151.368 32C151.768 31.68 152.074 31.32 152.288 30.92L158.528 32.84C158.021 33.9067 157.288 34.8667 156.328 35.72C155.394 36.5467 154.288 37.2 153.008 37.68C151.728 38.16 150.274 38.4 148.648 38.4ZM172.425 38.4C170.638 38.4 169.038 38.1067 167.625 37.52C166.238 36.9333 165.065 36.1333 164.105 35.12C163.145 34.1067 162.412 32.9467 161.905 31.64C161.425 30.3333 161.185 28.96 161.185 27.52C161.185 26.0533 161.425 24.6667 161.905 23.36C162.412 22.0533 163.145 20.8933 164.105 19.88C165.065 18.8667 166.238 18.0667 167.625 17.48C169.038 16.8933 170.638 16.6 172.425 16.6C174.212 16.6 175.798 16.8933 177.185 17.48C178.572 18.0667 179.745 18.8667 180.705 19.88C181.665 20.8933 182.398 22.0533 182.905 23.36C183.412 24.6667 183.665 26.0533 183.665 27.52C183.665 28.96 183.412 30.3333 182.905 31.64C182.398 32.9467 181.665 34.1067 180.705 35.12C179.745 36.1333 178.572 36.9333 177.185 37.52C175.798 38.1067 174.212 38.4 172.425 38.4ZM167.745 27.52C167.745 28.6133 167.945 29.5733 168.345 30.4C168.772 31.2267 169.332 31.8667 170.025 32.32C170.718 32.7733 171.518 33 172.425 33C173.305 33 174.092 32.7733 174.785 32.32C175.505 31.84 176.065 31.1867 176.465 30.36C176.865 29.5333 177.065 28.5867 177.065 27.52C177.065 26.4267 176.865 25.4667 176.465 24.64C176.065 23.8133 175.505 23.1733 174.785 22.72C174.092 22.2667 173.305 22.04 172.425 22.04C171.518 22.04 170.718 22.2667 170.025 22.72C169.332 23.1733 168.772 23.8133 168.345 24.64C167.945 25.4667 167.745 26.4267 167.745 27.52Z" fill="#C92225"/>
</svg>
